<?xml version="1.0" encoding="UTF-8"?><svg id="Calque_2" xmlns="http://www.w3.org/2000/svg" viewBox="0 0 1335.56 206.18"><defs><style>.cls-1{fill:#e2e2e2;}.cls-2{fill:#f2f2f2;}</style></defs><g id="Calque_2-2"><g id="Calque_1-2"><path class="cls-2" d="M103.09,202.98c-13.49,0-26.57-2.64-38.88-7.85-11.89-5.03-22.58-12.23-31.75-21.41-9.17-9.17-16.38-19.86-21.41-31.75-5.21-12.31-7.85-25.39-7.85-38.88s2.64-26.57,7.85-38.88c5.03-11.89,12.23-22.58,21.41-31.75s19.86-16.38,31.75-21.41c12.31-5.21,25.39-7.85,38.88-7.85s26.57,2.64,38.88,7.85c11.89,5.03,22.58,12.23,31.75,21.41,9.17,9.17,16.38,19.86,21.41,31.75,5.21,12.31,7.85,25.39,7.85,38.88s-2.64,26.57-7.85,38.88c-5.03,11.89-12.23,22.58-21.41,31.75s-19.86,16.38-31.75,21.41c-12.31,5.21-25.39,7.85-38.88,7.85h0Z"/><path d="M103.09,6.42c13.05,0,25.71,2.56,37.63,7.59,11.51,4.87,21.85,11.84,30.73,20.72,8.88,8.88,15.85,19.22,20.72,30.73,5.04,11.92,7.59,24.58,7.59,37.63s-2.56,25.71-7.59,37.63c-4.87,11.51-11.84,21.85-20.72,30.73-8.88,8.88-19.22,15.85-30.73,20.72-11.92,5.04-24.58,7.59-37.63,7.59s-25.71-2.56-37.63-7.59c-11.51-4.87-21.85-11.84-30.73-20.72-8.88-8.88-15.85-19.22-20.72-30.73-5.04-11.92-7.59-24.58-7.59-37.63s2.56-25.71,7.59-37.63c4.87-11.51,11.84-21.85,20.72-30.73,8.88-8.88,19.22-15.85,30.73-20.72,11.92-5.04,24.58-7.59,37.63-7.59M103.09,0C46.16,0,0,46.16,0,103.09s46.16,103.09,103.09,103.09,103.09-46.16,103.09-103.09S160.03,0,103.09,0h0Z"/></g><path d="M184.27,100.2c0,53.68-32.85,70.9-50.16,55.57-14.25-12.51-18.49-38.93-39.91-41.64-27.2-3.42-29.55,32.8-47.45,32.8-20.84,0-24.84-30.32-24.84-45.89s4.47-37.63,22.25-37.63c20.72,0,21.9,31.03,47.8,29.38,25.78-1.77,26.26-34.09,42.98-47.9,14.6-11.92,49.33.94,49.33,55.33Z"/><ellipse class="cls-1" cx="134.1" cy="101.16" rx="12.7" ry="19.12"/><ellipse class="cls-1" cx="46.67" cy="105.84" rx="10.29" ry="14.44"/><path d="M281.07,129.06v-59.15h21.52c5.48,0,9.66,1.5,12.54,4.49,2.88,3,4.32,7.18,4.32,12.54s-1.44,9.55-4.32,12.54c-2.88,3-7.06,4.49-12.54,4.49h-14.4v25.08h-7.12ZM288.19,97.79h14.24c2.99,0,5.33-.75,6.99-2.25,1.67-1.5,2.5-3.63,2.5-6.4v-4.41c0-2.77-.83-4.9-2.5-6.4-1.67-1.5-4-2.25-6.99-2.25h-14.24v21.69Z"/><path d="M349.71,130.07c-3.05,0-5.81-.54-8.26-1.61-2.46-1.07-4.55-2.61-6.27-4.62-1.72-2-3.04-4.41-3.94-7.2-.9-2.8-1.36-5.95-1.36-9.45s.45-6.58,1.36-9.41c.9-2.82,2.22-5.24,3.94-7.25,1.72-2,3.81-3.54,6.27-4.62,2.46-1.07,5.21-1.61,8.26-1.61s5.81.54,8.26,1.61c2.46,1.07,4.55,2.61,6.27,4.62,1.72,2.01,3.04,4.42,3.94,7.25.9,2.83,1.36,5.96,1.36,9.41s-.45,6.65-1.36,9.45c-.9,2.8-2.22,5.2-3.94,7.2-1.72,2.01-3.81,3.55-6.27,4.62-2.46,1.07-5.21,1.61-8.26,1.61ZM349.71,124.23c3.78,0,6.84-1.13,9.15-3.39,2.32-2.26,3.47-5.76,3.47-10.51v-6.27c0-4.75-1.16-8.25-3.47-10.51-2.32-2.26-5.37-3.39-9.15-3.39s-6.84,1.13-9.15,3.39c-2.32,2.26-3.47,5.76-3.47,10.51v6.27c0,4.75,1.16,8.25,3.47,10.51,2.32,2.26,5.37,3.39,9.15,3.39Z"/><path d="M377.67,85.33h6.02l5,37.79h.76l7.46-37.79h7.46l7.46,37.79h.76l5-37.79h5.85l-6.69,43.73h-8.81l-6.95-36.61h-.68l-7.12,36.61h-8.81l-6.69-43.73Z"/><path d="M452.16,130.07c-3.16,0-6-.54-8.52-1.61-2.51-1.07-4.66-2.61-6.44-4.62-1.78-2-3.15-4.41-4.11-7.2-.96-2.8-1.44-5.92-1.44-9.36s.5-6.67,1.48-9.49c.99-2.82,2.36-5.24,4.11-7.25,1.75-2,3.86-3.54,6.31-4.62,2.46-1.07,5.18-1.61,8.18-1.61s5.61.54,8.01,1.61c2.4,1.07,4.45,2.56,6.14,4.45,1.7,1.89,2.99,4.14,3.9,6.74.9,2.6,1.36,5.45,1.36,8.56v3.22h-32.37v2.03c0,1.92.31,3.7.93,5.34.62,1.64,1.51,3.05,2.67,4.24,1.16,1.19,2.57,2.11,4.24,2.75,1.66.65,3.52.97,5.55.97,2.94,0,5.48-.68,7.63-2.03,2.15-1.36,3.78-3.22,4.91-5.59l5,3.39c-1.3,2.94-3.46,5.35-6.48,7.25-3.02,1.89-6.71,2.84-11.06,2.84ZM451.73,89.91c-1.86,0-3.59.34-5.17,1.02-1.58.68-2.95,1.61-4.11,2.8-1.16,1.19-2.06,2.58-2.71,4.19-.65,1.61-.98,3.38-.98,5.3v.59h25.08v-.93c0-1.92-.3-3.67-.89-5.25-.59-1.58-1.41-2.95-2.46-4.11-1.05-1.16-2.32-2.05-3.81-2.67-1.5-.62-3.15-.93-4.96-.93Z"/><path d="M483.34,123.21h12.8v-32.03h-12.8v-5.85h19.58v11.02h.42c.9-3.45,2.61-6.14,5.13-8.09,2.51-1.95,5.72-2.92,9.62-2.92h6.1v6.78h-8.22c-3.9,0-7.05,1.13-9.45,3.38-2.4,2.25-3.6,5.21-3.6,8.87v18.85h16.95v5.85h-36.52v-5.85Z"/><path d="M553.84,130.07c-3.16,0-6-.54-8.52-1.61-2.51-1.07-4.66-2.61-6.44-4.62-1.78-2-3.15-4.41-4.11-7.2-.96-2.8-1.44-5.92-1.44-9.36s.5-6.67,1.48-9.49c.99-2.82,2.36-5.24,4.11-7.25,1.75-2,3.86-3.54,6.31-4.62,2.46-1.07,5.18-1.61,8.18-1.61s5.61.54,8.01,1.61c2.4,1.07,4.45,2.56,6.14,4.45,1.7,1.89,2.99,4.14,3.9,6.74.9,2.6,1.36,5.45,1.36,8.56v3.22h-32.37v2.03c0,1.92.31,3.7.93,5.34.62,1.64,1.51,3.05,2.67,4.24,1.16,1.19,2.57,2.11,4.24,2.75,1.66.65,3.52.97,5.55.97,2.94,0,5.48-.68,7.63-2.03,2.15-1.36,3.78-3.22,4.91-5.59l5,3.39c-1.3,2.94-3.46,5.35-6.48,7.25-3.02,1.89-6.71,2.84-11.06,2.84ZM553.42,89.91c-1.86,0-3.59.34-5.17,1.02-1.58.68-2.95,1.61-4.11,2.8-1.16,1.19-2.06,2.58-2.71,4.19-.65,1.61-.98,3.38-.98,5.3v.59h25.08v-.93c0-1.92-.3-3.67-.89-5.25-.59-1.58-1.41-2.95-2.46-4.11-1.05-1.16-2.32-2.05-3.81-2.67-1.5-.62-3.15-.93-4.96-.93Z"/><path d="M614.52,121.94h-.34c-2.82,5.42-7.32,8.13-13.47,8.13-5.37,0-9.56-2-12.58-6.02-3.02-4.01-4.53-9.63-4.53-16.86s1.51-12.85,4.53-16.86c3.02-4.01,7.22-6.02,12.58-6.02,6.16,0,10.65,2.71,13.47,8.14h.34v-26.1h6.78v62.71h-6.78v-7.12ZM603.33,124.06c1.53,0,2.97-.2,4.32-.59,1.36-.39,2.54-.97,3.56-1.74s1.82-1.7,2.42-2.8c.59-1.1.89-2.39.89-3.86v-15.76c0-1.47-.3-2.75-.89-3.86-.59-1.1-1.4-2.03-2.42-2.8s-2.2-1.34-3.56-1.74c-1.36-.39-2.8-.59-4.32-.59-3.96,0-7.02,1.2-9.19,3.6-2.18,2.4-3.26,5.58-3.26,9.53v7.46c0,3.95,1.09,7.13,3.26,9.53,2.17,2.4,5.24,3.6,9.19,3.6Z"/><path d="M688.24,66.35h6.78v26.1h.34c2.82-5.42,7.32-8.14,13.47-8.14,5.37,0,9.56,2.01,12.58,6.02,3.02,4.01,4.53,9.63,4.53,16.86s-1.51,12.85-4.53,16.86c-3.02,4.01-7.22,6.02-12.58,6.02-6.16,0-10.65-2.71-13.47-8.13h-.34v7.12h-6.78v-62.71ZM706.2,124.06c3.95,0,7.02-1.2,9.19-3.6,2.18-2.4,3.26-5.58,3.26-9.53v-7.46c0-3.95-1.09-7.13-3.26-9.53-2.18-2.4-5.24-3.6-9.19-3.6-1.53,0-2.97.2-4.32.59-1.36.4-2.54.97-3.56,1.74s-1.82,1.7-2.42,2.8c-.59,1.1-.89,2.39-.89,3.86v15.76c0,1.47.3,2.75.89,3.86.59,1.1,1.4,2.03,2.42,2.8s2.2,1.34,3.56,1.74c1.36.4,2.8.59,4.32.59Z"/><path d="M770.61,85.33h6.78l-21.69,53.3c-.51,1.24-1.07,2.33-1.7,3.26-.62.93-1.36,1.7-2.2,2.29-.85.59-1.86,1.04-3.05,1.36-1.19.31-2.6.47-4.24.47h-6.44v-5.85h10.17l4.92-11.95-17.63-42.88h6.95l7.37,18.3,6.53,16.61h.34l6.53-16.61,7.37-18.3Z"/><path d="M869.67,102.19h-23.05v26.86h-7.12v-59.15h7.12v26.1h23.05v-26.1h7.12v59.15h-7.12v-26.86Z"/><path d="M923.14,85.33h6.78l-21.69,53.3c-.51,1.24-1.07,2.33-1.7,3.26-.62.93-1.36,1.7-2.2,2.29-.85.59-1.86,1.04-3.05,1.36-1.19.31-2.6.47-4.24.47h-6.44v-5.85h10.17l4.92-11.95-17.63-42.88h6.95l7.37,18.3,6.53,16.61h.34l6.53-16.61,7.37-18.3Z"/><path d="M942.46,85.33h6.78v7.12h.34c2.82-5.42,7.32-8.14,13.47-8.14,5.37,0,9.56,2.01,12.58,6.02,3.02,4.01,4.53,9.63,4.53,16.86s-1.51,12.85-4.53,16.86c-3.02,4.01-7.22,6.02-12.58,6.02-6.16,0-10.65-2.71-13.47-8.13h-.34v24.07h-6.78v-60.67ZM960.42,124.06c3.95,0,7.02-1.2,9.19-3.6,2.18-2.4,3.26-5.58,3.26-9.53v-7.46c0-3.95-1.09-7.13-3.26-9.53-2.18-2.4-5.24-3.6-9.19-3.6-1.53,0-2.97.2-4.32.59-1.36.4-2.54.97-3.56,1.74s-1.82,1.7-2.42,2.8c-.59,1.1-.89,2.39-.89,3.86v15.76c0,1.47.3,2.75.89,3.86.59,1.1,1.4,2.03,2.42,2.8s2.2,1.34,3.56,1.74c1.36.4,2.8.59,4.32.59Z"/><path d="M1011.43,130.07c-3.16,0-6-.54-8.52-1.61-2.51-1.07-4.66-2.61-6.44-4.62-1.78-2-3.15-4.41-4.11-7.2-.96-2.8-1.44-5.92-1.44-9.36s.5-6.67,1.48-9.49c.99-2.82,2.36-5.24,4.11-7.25,1.75-2,3.86-3.54,6.31-4.62,2.46-1.07,5.18-1.61,8.18-1.61s5.61.54,8.01,1.61c2.4,1.07,4.45,2.56,6.14,4.45,1.7,1.89,2.99,4.14,3.9,6.74.9,2.6,1.36,5.45,1.36,8.56v3.22h-32.37v2.03c0,1.92.31,3.7.93,5.34.62,1.64,1.51,3.05,2.67,4.24,1.16,1.19,2.57,2.11,4.24,2.75,1.66.65,3.52.97,5.55.97,2.94,0,5.48-.68,7.63-2.03,2.15-1.36,3.78-3.22,4.91-5.59l5,3.39c-1.3,2.94-3.46,5.35-6.48,7.25-3.02,1.89-6.71,2.84-11.06,2.84ZM1011.01,89.91c-1.86,0-3.59.34-5.17,1.02-1.58.68-2.95,1.61-4.11,2.8-1.16,1.19-2.06,2.58-2.71,4.19-.65,1.61-.98,3.38-.98,5.3v.59h25.08v-.93c0-1.92-.3-3.67-.89-5.25-.59-1.58-1.41-2.95-2.46-4.11-1.05-1.16-2.32-2.05-3.81-2.67-1.5-.62-3.15-.93-4.96-.93Z"/><path d="M1042.62,123.21h12.8v-32.03h-12.8v-5.85h19.58v11.02h.42c.9-3.45,2.61-6.14,5.13-8.09,2.51-1.95,5.72-2.92,9.62-2.92h6.1v6.78h-8.22c-3.9,0-7.05,1.13-9.45,3.38-2.4,2.25-3.6,5.21-3.6,8.87v18.85h16.95v5.85h-36.52v-5.85Z"/><path d="M1093.97,123.21h14.74v-32.03h-15.59v-5.85h15.59v-8.98c0-2.94.78-5.34,2.33-7.2,1.55-1.86,4-2.8,7.33-2.8h14.66v5.85h-17.54v13.13h17.54v5.85h-17.54v32.03h15.59v5.85h-37.12v-5.85Z"/><path d="M1163.2,130.07c-3.05,0-5.81-.54-8.26-1.61-2.46-1.07-4.55-2.61-6.27-4.62-1.72-2-3.04-4.41-3.94-7.2-.9-2.8-1.36-5.95-1.36-9.45s.45-6.58,1.36-9.41c.9-2.82,2.22-5.24,3.94-7.25,1.72-2,3.81-3.54,6.27-4.62,2.46-1.07,5.21-1.61,8.26-1.61s5.81.54,8.26,1.61c2.46,1.07,4.55,2.61,6.27,4.62,1.72,2.01,3.04,4.42,3.94,7.25.9,2.83,1.36,5.96,1.36,9.41s-.45,6.65-1.36,9.45c-.9,2.8-2.22,5.2-3.94,7.2-1.72,2.01-3.81,3.55-6.27,4.62-2.46,1.07-5.21,1.61-8.26,1.61ZM1163.2,124.23c3.78,0,6.84-1.13,9.15-3.39,2.32-2.26,3.47-5.76,3.47-10.51v-6.27c0-4.75-1.16-8.25-3.47-10.51-2.32-2.26-5.37-3.39-9.15-3.39s-6.84,1.13-9.15,3.39c-2.32,2.26-3.47,5.76-3.47,10.51v6.27c0,4.75,1.16,8.25,3.47,10.51,2.32,2.26,5.37,3.39,9.15,3.39Z"/><path d="M1195.4,123.21h15.25v-51.01h-15.25v-5.85h22.03v56.86h15.25v5.85h-37.29v-5.85Z"/><path d="M1248.45,123.21h15.76v-32.03h-15.76v-5.85h22.54v37.88h14.74v5.85h-37.29v-5.85ZM1267.6,75.67c-1.98,0-3.36-.41-4.15-1.23-.79-.82-1.19-1.85-1.19-3.09v-1.36c0-1.24.39-2.27,1.19-3.09.79-.82,2.17-1.23,4.15-1.23s3.36.41,4.15,1.23c.79.82,1.19,1.85,1.19,3.09v1.36c0,1.24-.4,2.27-1.19,3.09-.79.82-2.18,1.23-4.15,1.23Z"/><path d="M1315.73,130.07c-3.05,0-5.81-.54-8.26-1.61-2.46-1.07-4.55-2.61-6.27-4.62-1.72-2-3.04-4.41-3.94-7.2-.9-2.8-1.36-5.95-1.36-9.45s.45-6.58,1.36-9.41c.9-2.82,2.22-5.24,3.94-7.25,1.72-2,3.81-3.54,6.27-4.62,2.46-1.07,5.21-1.61,8.26-1.61s5.81.54,8.26,1.61c2.46,1.07,4.55,2.61,6.27,4.62,1.72,2.01,3.04,4.42,3.94,7.25.9,2.83,1.36,5.96,1.36,9.41s-.45,6.65-1.36,9.45c-.9,2.8-2.22,5.2-3.94,7.2-1.72,2.01-3.81,3.55-6.27,4.62-2.46,1.07-5.21,1.61-8.26,1.61ZM1315.73,124.23c3.78,0,6.84-1.13,9.15-3.39,2.32-2.26,3.47-5.76,3.47-10.51v-6.27c0-4.75-1.16-8.25-3.47-10.51-2.32-2.26-5.37-3.39-9.15-3.39s-6.84,1.13-9.15,3.39c-2.32,2.26-3.47,5.76-3.47,10.51v6.27c0,4.75,1.16,8.25,3.47,10.51,2.32,2.26,5.37,3.39,9.15,3.39Z"/></g></svg>